<svg xmlns="http://www.w3.org/2000/svg" viewBox="0 0 496 512" width="10rem" height="10rem">
    <!--!Font Awesome Pro 6.7.2 by @fontawesome - https://fontawesome.com License - https://fontawesome.com/license (Commercial License) Copyright 2025 Fonticons, Inc.-->
    <path fill="#C4C1B7" style="opacity: .1"
          d="M216 10.1A247 247 0 0 0 84.3 69.7l79.9 79.9A212.3 212.3 0 0 0 216 10.1zM186.9 172.3 248 233.4 411.7 69.7A247 247 0 0 0 248 8v2a244.1 244.1 0 0 1 -61.1 162.3zM280 502a247 247 0 0 0 131.7-59.7l-79.9-79.9A212.4 212.4 0 0 0 280 502zM434.3 92.3 270.6 256l61.1 61.1A244.2 244.2 0 0 1 494 256h2A247 247 0 0 0 434.3 92.3zm0 327.3A247 247 0 0 0 494 288a212.3 212.3 0 0 0 -139.5 51.8zM309.1 339.7 248 278.6 84.3 442.3A247 247 0 0 0 248 504v-2A244.1 244.1 0 0 1 309.1 339.7zM61.7 92.3A247 247 0 0 0 2.1 224a212.3 212.3 0 0 0 139.5-51.8zM164.3 194.9A244.1 244.1 0 0 1 2 256H0A247 247 0 0 0 61.7 419.7L225.4 256z"/>
    <path fill="#37474F" style="opacity: 0"
          d="M280 502a249.8 249.8 0 0 1 -32 2v-2a244.1 244.1 0 0 1 61.1-162.3L248 278.6 84.3 442.3A249.1 249.1 0 0 1 61.7 419.7L225.4 256l-61.1-61.1A244.1 244.1 0 0 1 2 256H0a249.9 249.9 0 0 1 2.1-32 212.3 212.3 0 0 0 139.5-51.8L61.7 92.3A249.1 249.1 0 0 1 84.3 69.7l79.9 79.9A212.3 212.3 0 0 0 216 10.1 249.9 249.9 0 0 1 248 8v2a244.1 244.1 0 0 1 -61.1 162.3L248 233.4 411.7 69.7A249.1 249.1 0 0 1 434.3 92.3L270.6 256l61.1 61.1A244.2 244.2 0 0 1 494 256h2a249.8 249.8 0 0 1 -2 32 212.3 212.3 0 0 0 -139.5 51.8l79.9 79.9a249.1 249.1 0 0 1 -22.6 22.6l-79.9-79.9A212.4 212.4 0 0 0 280 502z"/>
</svg>
