<svg xmlns="http://www.w3.org/2000/svg" viewBox="0 0 448 512" width="1rem" height="1rem" style="line-height: .1">
    <!--!Font Awesome Pro 6.7.1 by @fontawesome - https://fontawesome.com License - https://fontawesome.com/license (Commercial License) Copyright 2024 Fonticons, Inc.-->
    <path fill="#87CEEB" opacity=".6"
          d="M138.1 441.7a15.9 15.9 0 0 0 .2 22.4l11.3 11.3a16.1 16.1 0 0 0 22.6 0l19.7-19.7 .1-67.9-53.7 53.7zM91.4 83.9l-14.9 4a15.5 15.5 0 0 0 -10.9 18.9l7 26 56.7 32.7-19-70.7a15.5 15.5 0 0 0 -18.9-10.9zM65.5 405.3a15.5 15.5 0 0 0 10.9 18.9l14.9 4a15.5 15.5 0 0 0 18.9-10.9l19-70.7-56.7 32.7zm355-167.2a15.5 15.5 0 0 0 18.9-10.9l4-14.9a15.5 15.5 0 0 0 -10.9-18.9l-26-7-56.7 32.7zM8.7 227.2a15.5 15.5 0 0 0 18.9 10.9l70.8-19-56.7-32.8-26 7a15.5 15.5 0 0 0 -11 19zm18.9 46.7a15.5 15.5 0 0 0 -18.9 10.9l-4 14.9a15.5 15.5 0 0 0 10.9 18.9l26 7 56.8-32.7zm122.2-237.2L138.3 48a1.2 1.2 0 0 0 -.2 .2 15.9 15.9 0 0 0 .2 22.4L192 124.3V56.4l-19.7-19.7a16.1 16.1 0 0 0 -22.6 0zm293.7 263.1l-4-14.9a15.5 15.5 0 0 0 -18.9-10.9l-70.7 19 56.7 32.7 26-7a15.5 15.5 0 0 0 10.9-18.9zm-60.9-193a15.5 15.5 0 0 0 -10.9-18.9l-14.9-4a15.5 15.5 0 0 0 -18.9 10.9l-19 70.7 56.7-32.7zm-7 272.4l-56.7-32.7 19 70.7a15.5 15.5 0 0 0 18.9 10.9l14.9-4a15.5 15.5 0 0 0 10.9-18.9zM256 387.7l-.2 67.9 19.7 19.7a16.1 16.1 0 0 0 22.6 0l11.3-11.3a16.1 16.1 0 0 0 0-22.6zm42.4-351a16.1 16.1 0 0 0 -22.6 0L256 56.4v67.9l53.7-53.7a16.1 16.1 0 0 0 0-22.6z"/>
    <path fill="#5A9BD6" opacity=".6"
          d="M446 366.1l-.1 .2-15.5 26.8a15.4 15.4 0 0 1 -21.1 5.7L256 310.2l-.2 185.8a16 16 0 0 1 -16 16h-32a16 16 0 0 1 -16-16l.1-185.7-153.3 88.5a15.5 15.5 0 0 1 -21.1-5.7L2 366.3a15.5 15.5 0 0 1 5.7-21.1L162.2 256 7.9 166.8a15.4 15.4 0 0 1 -5.7-21.1L17.7 119a15.4 15.4 0 0 1 21-5.7h.1L192 201.8V16a16 16 0 0 1 16-16h32a16 16 0 0 1 16 16v185.8l153.3-88.5a15.5 15.5 0 0 1 21.1 5.7l15.5 26.8a15.5 15.5 0 0 1 -5.7 21.1L285.9 256l154.5 89.2a15.3 15.3 0 0 1 5.7 20.9z"/>
</svg>
